<svg aria-hidden="true" style="position:absolute;width:0;height:0" xmlns="http://www.w3.org/2000/svg" overflow="hidden">
<defs>
<symbol id="icon-adapt" viewBox="0 0 32 32">
<path d="M2.3 31.36h26.78c.14-3.06-.08-8.12-1.96-10.54l-.07-.08-4.1-2.06c.08-.3.13-.58.15-.78.02-.24-.02-.48-.1-.68a5.72 5.72 0 00-2.87-2.82l-.03-.02c.24-.48.4-1 .48-1.53.44-.12.8-.48.9-.95l.49-1.95c.02-.1.04-.2.04-.32 0-.4-.19-.77-.48-1.01 1.35-3.07-.91-5.97-1.04-6.12A6.6 6.6 0 0014.75.4h.03c-4.46.93-6.19 4.34-5.21 8.36-.29.32-.41.77-.3 1.2l.47 1.95c.12.47.48.82.92.95.15.99.56 1.86 1.16 2.56v1.54c-6.41 3.28-2.36 1.18-7.5 3.78 0 .05-2.4 2.6-2.05 10.16l.03.47zm25.85-.97h-4.4v-1.85l2.9-6.68c1.47 2.43 1.53 7.05 1.5 8.53zm-6.01-12.57c-.17 1.95-1.24 1.36-1.9 2.87a2.2 2.2 0 01-.54-2.02v.02c.24-1.35-.57-1.75-.37-3.16l.03-.03.22-.28c1.75.76 2.59 2.17 2.56 2.6zm-9.36-1.54a4.92 4.92 0 005.59.07h-.02c.11 1.12.55 1.35.4 2.16-.03.13-.05.28-.06.44l-3 3.4-3.84-4.33.93-.48v-1.26zm-1.2-4.14V6.96a4.23 4.23 0 011.86-1.85l.02-.01a26.86 26.86 0 016.2 4.78v2.5a4.05 4.05 0 01-8.08-.25zm-.6 6.35l4.72 5.31 3.16-3.57c.08.21.17.4.28.6l-3.45 4.32-5.15-6.45.44-.21zm9.65-7.13v-1.5l.36-.41c.02.76.1-.14-.36 1.91zM14.96 1.34c.2 0 2.77-.4 4.8 1.8.08.1 1.74 2.24 1.07 4.56-.23-1.04-.62-2.36-1.25-3l-.68.68c.61.63 1.02 2.54 1.17 3.53a27.67 27.67 0 00-6.55-4.88c-.18.11-1.74.4-2.86 2.6l-.05.1v1.6h-.15c-.72-3.45.66-6.2 4.5-7zm-4.6 8l.24.98v1.04l-.4-1.64c-.06-.24.12-.34.16-.38zm-.7 9.81l6.03 7.55 4.08-5.12c.45.4.66.47 1.6.95l-.31-1.07c-.08-.28.24-.72.43-.92.43-.24.79-.56 1.05-.98l3.34 1.68-3.1 7.1v2.05H8.6v-2.05l-3.1-7.1 4.16-2.09zm-4.94 2.72l2.92 6.67v1.86H3.22c-.01-1.47.04-6.1 1.5-8.53z"/>
</symbol>
<symbol id="icon-finance" viewBox="0 0 32 32">
<path d="M2.87 13.8c0 .34-.53.34-.53 0a13.4 13.4 0 0126.82 0c0 .34-.53.34-.53 0 0-5-8.22-5.01-8.22 0 0 .34-.55.34-.55 0 0-5-8.23-5-8.23 0 0 .34-.55.34-.55 0 0-4.99-8.2-5.02-8.2 0zm8.27-1.95c.14-2.87.6-5.46 1.25-7.43.53-1.56 1.2-2.76 1.95-3.43A12.9 12.9 0 003.08 11.45c1.95-2.8 6.44-2.57 8.06.4zm8.68-.13c-.1-2.58-.53-5.02-1.27-7.33l.06.2c-1.64-4.9-4.08-4.9-5.72 0a27.09 27.09 0 00-1.22 7.08v.05c1.76-2.98 6.4-2.98 8.15 0zm8.59-.26A12.9 12.9 0 0017.23 1h-.06c.76.66 1.42 1.85 1.94 3.42.7 2.2 1.16 4.75 1.25 7.39v.05c1.63-3 6.14-3.18 8.06-.4zm-14.42 8.47V17.2c-.5.34-.88.84-.88 1.45 0 .6.4 1 .88 1.28zm.53.85c-.94-.43-1.93-.94-1.93-2.13 0-1.22.94-1.84 1.93-2.3v4.43zm2.99 3.26v2.75c.5-.32.89-.83.89-1.45 0-.6-.4-1.01-.9-1.3zm-.53-.85c.94.43 1.95.96 1.95 2.15 0 1.23-.94 1.84-1.95 2.3V23.2z"/>
<path d="M17.5 14.11c2.18.5 4.4 2.12 4.4 4.54 0 2.07-3.51 2-3.51 0 0-.62-.4-1.12-.88-1.45v3.87c2 .66 4.39 1.84 4.39 4.27 0 2.42-2.22 4.04-4.4 4.54 0 2.3-3.5 2.3-3.5 0a6.46 6.46 0 01-3.1-1.63 4.07 4.07 0 01-1.3-2.9c0-2.05 3.51-2.05 3.51 0 0 .6.4 1.1.88 1.43v-3.87c-1.99-.64-4.4-1.85-4.4-4.26 0-2.42 2.23-4.05 4.4-4.55.01-2.3 3.5-2.3 3.52 0zm-2.98 0v.43c-2.06.4-4.4 1.73-4.4 4.1 0 2.3 2.56 3.32 4.4 3.88v5.12c-1-.45-1.93-1.06-1.93-2.3 0-1.35-2.45-1.35-2.45 0 0 .95.42 1.84 1.14 2.54a6.03 6.03 0 003.2 1.56h.04v.43c0 1.62 2.46 1.62 2.46 0v-.42c2.07-.4 4.4-1.73 4.4-4.1 0-2.32-2.56-3.3-4.4-3.89v-5.1c1 .44 1.94 1.05 1.94 2.3 0 1.3 2.45 1.36 2.45 0 0-2.39-2.33-3.7-4.39-4.12v-.42c0-1.62-2.46-1.62-2.46 0z"/>
</symbol>
<symbol id="icon-modalclose" viewBox="0 0 32 32">
<path stroke-width="3.76" d="M1.88 29.18l27.3-27.3m0 27.3L1.88 1.88"/>
</symbol>
<symbol id="icon-modalopen" viewBox="0 0 32 32">
<path stroke-width="3.05" d="M0 6.86h31.24M0 16h31.24M0 25.14h31.24"/>
</symbol>
<symbol id="icon-sovr" viewBox="0 0 32 32">
<path d="M29.45.26H14.1c-1 0-1.8.81-1.8 1.81v6.36L.84 13.23a.37.37 0 00-.04.66l1.45.87v9.3c-.74.17-1.3.83-1.3 1.62v.9c0 .2.17.38.37.38h2.62c.2 0 .36-.18.36-.39v-.89c0-.8-.54-1.46-1.28-1.63h-.01V15.2l1.14.68c-.03.27 0-.45-.01 4.33 0 1.57 4.03 2.42 8.13 2.46v7.26c0 1 .81 1.8 1.82 1.8h15.36c1 0 1.82-.8 1.82-1.8V2.07c-.01-1-.82-1.8-1.82-1.81zM3.57 25.68v.51H1.7v-.51a.93.93 0 011.86 0zm25.88 5.31H14.1c-.58 0-1.06-.47-1.06-1.06V27.4h17.5v2.52c0 .58-.49 1.06-1.07 1.06zm1.07-4.32h-17.5v-4c2-.02 8.13-.45 8.13-2.46v-4.33l3.33-2a.37.37 0 00-.04-.66L13 8.42V5.33h17.51v21.35zm-17.87-8.92c-2.06 0-6.04.27-7.76 1.39.01-3.45-.12-3.22.3-3.5 1.07-.8 4.14-1.36 7.46-1.36 1.45 0 7.77.4 7.77 1.74v3.13c-1.75-1.15-5.7-1.4-7.77-1.4zm.38-15.68c0-.6.47-1.07 1.07-1.07h15.36c.6 0 1.07.48 1.07 1.07V4.6H13.01V2.07zm-.38 7.01l10.82 4.56-2.69 1.6c-1.42-1.41-6.14-1.69-8.14-1.69-2 0-6.72.28-8.14 1.69l-2.69-1.6 10.83-4.55zM4.88 20.22c0-.6 2.67-1.73 7.76-1.73 5.1 0 7.77 1.13 7.77 1.73s-2.67 1.72-7.77 1.72c-5.09 0-7.76-1.12-7.76-1.72z"/><path d="M21.77 27.98h-.1a1.23 1.23 0 10.1 2.46 1.23 1.23 0 000-2.46zm0 1.72a.49.49 0 010-.98.49.49 0 010 .98zm1.42-27.28h-2.85v.74h2.84v-.74z"/>
</symbol>
</defs>
</svg>