<svg aria-hidden="true" style="position: absolute; width: 0; height: 0; overflow: hidden;" version="1.1" xmlns="http://www.w3.org/2000/svg" xmlns:xlink="http://www.w3.org/1999/xlink">
<defs>
<symbol id="journal" viewBox="0 0 46 48">
<path d="M45.2261 7.44103C45.2261 7.43999 45.225 7.43895 45.225 7.43739C45.2151 7.41391 45.2031 7.39095 45.189 7.36956C45.1875 7.36799 45.1864 7.36643 45.1854 7.36486C45.1708 7.34295 45.1541 7.32103 45.1348 7.30173L37.9259 0.0933838C37.9071 0.0746012 37.8868 0.0589521 37.8649 0.0443434C37.8607 0.0412129 37.8555 0.0385972 37.8513 0.0354667C37.8336 0.0245102 37.8158 0.0145973 37.797 0.00624947C37.7913 0.00364077 37.7861 0.00103182 37.7809 -0.000533395C37.7339 -0.019316 37.6833 -0.0292283 37.6327 -0.0307936C37.6296 -0.0307936 37.6269 -0.031311 37.6249 -0.031311H5.86764C5.63233 -0.031311 5.44189 0.159646 5.44189 0.394951V44.3609C5.44189 44.389 5.44451 44.4162 5.45025 44.4443C5.45285 44.4563 5.45703 44.4673 5.46068 44.4788C5.46538 44.4939 5.46903 44.509 5.47477 44.5236C5.48051 44.5367 5.48781 44.5492 5.49511 44.5623C5.50138 44.5732 5.50659 44.5857 5.51389 44.5967C5.5285 44.6181 5.5452 44.6384 5.56294 44.6567C5.56451 44.6583 5.56503 44.6603 5.56711 44.6614L8.8139 47.9076C8.98034 48.0741 9.24955 48.0741 9.41651 47.9076L12.3633 44.9624L15.309 47.9076C15.392 47.9911 15.5015 48.0323 15.6106 48.0323C15.7191 48.0323 15.8282 47.9911 15.9116 47.9076L18.8569 44.9629L21.8036 47.9076C21.9701 48.0741 22.2398 48.0741 22.4062 47.9076L25.3515 44.9629L28.2967 47.9076C28.4631 48.0741 28.7329 48.0741 28.8988 47.9076L31.8466 44.9624L34.7918 47.9076C34.8748 47.9911 34.9843 48.0323 35.0928 48.0323C35.2019 48.0323 35.3109 47.9911 35.3944 47.9076L38.3396 44.9629L41.2869 47.9076C41.4529 48.0741 41.7231 48.0741 41.889 47.9076L45.1358 44.6614C45.1421 44.6551 45.1468 44.6478 45.1525 44.641C45.1645 44.627 45.1775 44.6129 45.188 44.5972C45.1979 44.5831 45.2047 44.5669 45.2125 44.5518C45.2177 44.5419 45.2235 44.5336 45.2266 44.5236C45.2355 44.5043 45.2396 44.4845 45.2449 44.4647C45.2469 44.4579 45.2501 44.4516 45.2516 44.4449C45.2574 44.4156 45.2605 44.3875 45.2605 44.3577V7.60382C45.2589 7.54799 45.248 7.49268 45.2261 7.44103ZM38.0501 1.42382L43.8038 7.17703H38.0501V1.42382ZM44.4064 44.1835L41.5864 47.0035L38.6391 44.0583C38.4732 43.8923 38.2035 43.8923 38.037 44.0583L35.0918 47.0035L32.1466 44.0583C31.9802 43.8923 31.7104 43.8923 31.544 44.0583L28.5967 47.0035L25.652 44.0598C25.652 44.0593 25.6515 44.0588 25.6515 44.0583C25.5685 43.9753 25.4595 43.9336 25.3499 43.9336C25.2409 43.9336 25.1318 43.9753 25.0489 44.0583C25.0483 44.0588 25.0483 44.0588 25.0483 44.0588L22.1036 47.0035L19.1569 44.0583C18.9904 43.8923 18.7212 43.8923 18.5542 44.0583L15.609 47.0035L12.6633 44.0583C12.4969 43.8923 12.2276 43.8923 12.0607 44.0583L9.1139 47.0035L6.29337 44.1835V0.820169H37.1981V7.60278C37.1981 7.83808 37.389 8.02904 37.6243 8.02904H44.4059L44.4064 44.1835Z" />
<path d="M9.47069 4.85112H23.4251C23.6604 4.85112 23.8514 4.66016 23.8514 4.42486C23.8514 4.18955 23.6604 3.9986 23.4251 3.9986H9.47069C9.23486 3.9986 9.04443 4.18955 9.04443 4.42486C9.04443 4.66016 9.23486 4.85112 9.47069 4.85112Z" />
<path d="M9.47069 7.48643H31.8486C32.0839 7.48643 32.2749 7.29548 32.2749 7.06017C32.2749 6.82487 32.0839 6.63391 31.8486 6.63391H9.47069C9.23486 6.63391 9.04443 6.82487 9.04443 7.06017C9.04443 7.29548 9.23486 7.48643 9.47069 7.48643Z" />
<path d="M9.04443 9.85198V23.6499C9.04443 23.8852 9.23486 24.0762 9.47069 24.0762H41.229C41.4643 24.0762 41.6547 23.8852 41.6547 23.6499V9.85198C41.6547 9.61668 41.4643 9.42572 41.229 9.42572H9.47069C9.23486 9.42572 9.04443 9.61668 9.04443 9.85198ZM18.4623 10.2782H40.8022V13.9456H18.4623V10.2782ZM18.4623 14.7981H40.8022V18.4638H18.4623V14.7981ZM18.4623 19.3158H40.8022V23.2236H18.4623V19.3158ZM9.89695 10.2782H17.6103V13.9456H9.89695V10.2782ZM9.89695 14.7981H17.6103V18.4638H9.89695V14.7981ZM9.89695 19.3158H17.6103V23.2236H9.89695V19.3158Z" />
<path d="M41.229 25.9936H9.47069C9.23486 25.9936 9.04443 26.1845 9.04443 26.4198V40.2172C9.04443 40.4525 9.23486 40.6429 9.47069 40.6429C9.70599 40.6429 9.89643 40.4525 9.89643 40.2172V35.8836H17.6098V40.2172C17.6098 40.4525 17.8008 40.6429 18.0356 40.6429C18.2714 40.6429 18.4618 40.4525 18.4618 40.2172V35.8836H40.8016V40.2172C40.8016 40.4525 40.9926 40.6429 41.2279 40.6429C41.4632 40.6429 41.6536 40.4525 41.6536 40.2172V26.4198C41.6547 26.1845 41.4643 25.9936 41.229 25.9936ZM17.6103 35.0311H9.89695V31.3659H17.6103V35.0311ZM17.6103 30.5129H9.89695V26.8466H17.6103V30.5129ZM40.8022 35.0311H18.4623V31.3659H40.8022V35.0311ZM40.8022 30.5129H18.4623V26.8466H40.8022V30.5129Z" />
<path d="M3.42138 -0.0318298C3.18607 -0.0318298 2.99512 0.159127 2.99512 0.394432V44.3603C2.99512 44.5951 3.18607 44.7861 3.42138 44.7861C3.65668 44.7861 3.84763 44.5951 3.84763 44.3603V0.394432C3.84763 0.159127 3.65668 -0.0318298 3.42138 -0.0318298Z" />
<path d="M1.07763 -0.0318298C0.842324 -0.0318298 0.651367 0.159127 0.651367 0.394432V44.3603C0.651367 44.5951 0.842324 44.7861 1.07763 44.7861C1.31293 44.7861 1.50336 44.5951 1.50336 44.3603V0.394432C1.50336 0.159127 1.31293 -0.0318298 1.07763 -0.0318298Z" />
</symbol>
<symbol id="phone" viewBox="0 0 48 47">
<path d="M44.3196 -0.187988H21.1926C19.6871 -0.187988 18.4624 1.0367 18.4624 2.54224V12.1155L1.28109 19.3269C1.08657 19.4085 0.954339 19.5921 0.939403 19.8026C0.924468 20.0132 1.02865 20.2142 1.20969 20.3228L3.4008 21.6342V35.6091C2.28034 35.8646 1.43955 36.8674 1.43955 38.0673V39.4143C1.43955 39.7233 1.69017 39.9739 1.99907 39.9739H5.92266C6.23157 39.9739 6.48219 39.7233 6.48219 39.4143V38.0673C6.48219 36.869 5.64126 35.8675 4.51985 35.6104V22.304L6.25233 23.3409C6.19906 23.7404 6.24558 22.6446 6.22756 29.8471C6.22756 32.2147 12.292 33.483 18.4624 33.5557V44.4617C18.4624 45.0251 18.6349 45.549 18.9298 45.9838C19.4205 46.7097 20.251 47.1879 21.1912 47.1879H44.3182C45.8223 47.1879 47.0458 45.964 47.0458 44.4603C47.0458 44.535 47.0428 42.1501 47.0458 2.5426C47.0458 1.0575 45.8179 -0.187988 44.3196 -0.187988ZM5.36314 38.0673V38.8548H2.5586V38.0673C2.5586 37.2921 3.18624 36.6612 3.95741 36.6612C4.73258 36.6612 5.36314 37.2921 5.36314 38.0673ZM44.3196 46.066H21.1926C20.6377 46.066 20.1475 45.7851 19.8576 45.3587C19.684 45.102 19.5825 44.7927 19.5825 44.4603V40.6798H45.9239V44.4617C45.9239 45.3381 45.1936 46.066 44.3196 46.066ZM45.9239 39.5608H19.5815V33.559C22.5942 33.5245 31.8236 32.861 31.8236 29.8471C31.8203 25.3225 31.8316 23.4877 31.8094 23.3324L36.8338 20.3228C37.0149 20.2142 37.119 20.0132 37.1041 19.8026C37.0892 19.5921 36.9569 19.4085 36.7624 19.3269L19.5815 12.1153V7.44208H45.9239V39.5608ZM19.0219 26.1322C15.9183 26.1322 9.94263 26.533 7.34661 28.2282C7.36308 23.0432 7.16671 23.3809 7.80523 22.9412C9.41786 21.7537 14.0303 20.9246 19.0219 20.9246C21.1991 20.9246 30.7045 21.5231 30.7045 23.5357V28.229C28.0842 26.518 22.1388 26.1322 19.0219 26.1322ZM19.5825 2.5426C19.5825 1.6556 20.3042 0.933974 21.1912 0.933974H44.3182C45.206 0.933974 45.9239 1.66572 45.9239 2.54224V6.32303H19.5825V2.5426ZM19.0219 13.0941L35.3104 19.9308L31.2744 22.3461C29.1287 20.2182 22.0307 19.8055 19.0219 19.8055C16.0092 19.8055 8.91075 20.2194 6.7696 22.3467L2.73236 19.9308L19.0219 13.0941ZM7.34661 29.8471C7.34661 28.9415 11.3565 27.2513 19.0219 27.2513C26.6921 27.2513 30.7045 28.9415 30.7045 29.8471C30.7045 30.7534 26.6921 32.4436 19.0219 32.4436C11.3565 32.4436 7.34661 30.7534 7.34661 29.8471Z" />
<path d="M32.7548 41.5235C31.7345 41.5235 30.9043 42.3533 30.9043 43.374C30.9043 44.3947 31.7345 45.2252 32.7548 45.2252C33.7755 45.2252 34.6057 44.3947 34.6057 43.374C34.6057 42.3533 33.7755 41.5235 32.7548 41.5235ZM32.7548 44.1062C32.3516 44.1062 32.0233 43.7776 32.0233 43.374C32.0233 42.9704 32.3516 42.6425 32.7548 42.6425C33.1584 42.6425 33.4866 42.9704 33.4866 43.374C33.4866 43.7776 33.1584 44.1062 32.7548 44.1062Z" />
<path d="M34.8892 3.06898H30.6206V4.18803H34.8892V3.06898Z" />
</symbol>
<symbol id="book" viewBox="0 0 66 48">
<path d="M29.3999 6.9118H8.94043V8.44372H29.3999V6.9118Z" />
<path d="M29.4 12.6236H12.0044V14.1555H29.4V12.6236Z" />
<path d="M29.3999 18.3358H8.94043V19.8678H29.3999V18.3358Z" />
<path d="M29.4 24.0476H12.0044V25.5795H29.4V24.0476Z" />
<path d="M29.3999 29.7594H8.94043V31.2913H29.3999V29.7594Z" />
<path d="M29.4 35.4716H12.0044V37.0036H29.4V35.4716Z" />
<path d="M57.4848 6.9118H37.0254V8.44372H57.4848V6.9118Z" />
<path d="M54.421 12.6236H37.0254V14.1555H54.421V12.6236Z" />
<path d="M57.4848 18.3358H37.0254V19.8678H57.4848V18.3358Z" />
<path d="M54.421 24.0476H37.0254V25.5795H54.421V24.0476Z" />
<path d="M57.4848 29.7594H37.0254V31.2913H57.4848V29.7594Z" />
<path d="M54.421 35.4716H37.0254V37.0036H54.421V35.4716Z" />
<path d="M64.8722 5.16795H62.0637V0.949704C62.0637 0.526831 61.7206 0.183746 61.2978 0.183746H38.4008C36.1664 0.183746 34.2297 1.39171 33.2133 3.19995C32.1969 1.39153 30.259 0.183746 28.0245 0.183746H5.12754C4.70466 0.183746 4.36158 0.526831 4.36158 0.949704V5.16795H1.55307C1.13019 5.16795 0.787109 5.51104 0.787109 5.93391V47.0503C0.787109 47.4731 1.13019 47.8162 1.55307 47.8162C9.24331 47.8162 57.1545 47.8162 64.8722 47.8162C65.2951 47.8162 65.6382 47.4731 65.6382 47.0503V5.93391C65.6382 5.51104 65.2951 5.16795 64.8722 5.16795ZM38.4008 1.71566H60.5318C60.5318 8.57484 60.5318 26.6435 60.5318 42.7408H36.7667C35.7132 42.7408 34.6599 43.185 33.9786 43.761V6.12789C33.9786 3.68263 35.9363 1.71566 38.4008 1.71566ZM5.89349 1.71566H28.0245C30.4196 1.71566 32.3579 3.57969 32.4372 5.95934C32.4382 5.99226 32.4412 6.09548 32.4467 6.12789V6.13388V6.13537V43.758C31.7672 43.1843 30.7252 42.7408 29.6686 42.7408H5.89349C5.89349 26.6489 5.89349 8.57265 5.89349 1.71566ZM2.31902 6.69987H4.36158V43.5067C4.36158 43.9296 4.70466 44.2727 5.12754 44.2727H29.6686C30.8362 44.2727 31.9646 45.0386 32.3258 46.2843H2.31902V6.69987ZM64.1063 46.2843H34.1C34.4636 45.0326 35.5807 44.2727 36.7667 44.2727H61.2978C61.7206 44.2727 62.0637 43.9296 62.0637 43.5067V6.69987H64.1063V46.2843Z" />
</symbol>
<symbol id="society" viewBox="0 0 49 48">
<path d="M2.98975 18.837V23.084C2.98975 23.3121 3.0944 23.5271 3.2738 23.6688C6.17636 25.9532 9.81838 27.212 13.5294 27.212C14.6401 27.212 15.7517 27.0959 16.8386 26.8764C19.1553 27.9004 21.6212 28.4243 24.1736 28.4243C26.7342 28.4243 29.2007 27.9001 31.5092 26.8764C36.1455 27.8127 41.0857 26.8071 45.0728 23.6688C45.2522 23.5271 45.3568 23.3121 45.3568 23.084V18.837C45.3568 18.2137 45.0474 17.6457 44.4946 17.2963L38.6938 14.0329C39.9627 12.4227 40.9082 10.1302 41.0726 8.16368C41.5541 4.77893 38.7954 1.19418 34.8244 1.19418C33.1546 1.19418 31.5673 1.88152 30.4026 3.03435C30.3623 3.07429 30.3163 3.10798 30.2771 3.14904C30.2412 3.18653 30.2122 3.23026 30.1773 3.26872C30.154 3.29423 30.1338 3.32242 30.111 3.3483C28.9761 1.27875 26.7946 0 24.2245 0C23.9748 0 23.7296 0.0171075 23.4867 0.0418018C23.4719 0.0409092 23.4594 0.0333968 23.4443 0.0333968C23.3064 0.0333968 23.0143 0.0696943 22.8582 0.114769C22.8351 0.121463 22.8185 0.137752 22.7966 0.14638C20.8774 0.534497 19.2516 1.69751 18.2772 3.38029C17.1053 2.01377 15.3826 1.19485 13.5091 1.19485C7.64692 1.19485 5.04614 8.11266 9.67349 14.066L3.81931 17.316C3.29991 17.6449 2.98975 18.2137 2.98975 18.837ZM31.4947 25.2419C31.3689 25.3033 31.2444 25.3689 31.1177 25.4266L31.1176 25.4267C31.1167 25.4271 31.1158 25.4277 31.1148 25.428C28.9364 26.429 26.6012 26.9367 24.1736 26.9367C21.7534 26.9367 19.4181 26.429 17.2296 25.4266C16.1647 24.9421 15.1347 24.3262 14.162 23.5954V19.2902C14.162 19.1435 14.2332 19.0135 14.3153 18.9589L21.1284 15.1723C21.976 15.8919 23.0589 16.4196 24.1809 16.4196C25.2617 16.4196 26.4291 15.8842 27.2595 15.1547L33.9898 18.9343C34.114 19.0142 34.1852 19.1435 34.1852 19.2902V23.5947C33.3284 24.2385 32.4259 24.7869 31.4947 25.2419ZM43.7312 18.5725C43.819 18.6277 43.8692 18.7243 43.8692 18.837V22.718C40.9164 24.9339 37.3635 25.9397 33.7639 25.6873C34.3177 25.3417 34.9208 24.9129 35.3881 24.5469C35.5675 24.406 35.6728 24.1903 35.6728 23.9615V19.2902C35.6728 18.6379 35.3452 18.0372 34.7576 17.6603L31.1824 15.6511L32.0518 15.1695C33.1063 16.0294 34.0118 16.2852 34.8244 16.2852C35.8181 16.2852 36.8644 15.7977 37.6413 15.147L43.7312 18.5725ZM34.8244 2.68178C36.895 2.68178 38.7139 4.03491 39.3562 5.89524C38.1068 5.74699 36.8851 5.13031 36.0011 4.1824C35.8413 4.01103 35.614 3.92237 35.3779 3.94997C35.1455 3.97466 34.9385 4.10758 34.8186 4.30811C33.9702 5.72959 32.5792 6.67824 30.9971 6.94772C30.9972 6.94623 30.9969 6.94489 30.9969 6.9434C31.004 6.61977 30.9852 6.29183 30.9481 5.96389C30.9443 5.93027 30.9412 5.89724 30.937 5.864C30.8891 5.49142 30.7768 5.02588 30.7546 4.9509C31.5992 3.5977 33.1682 2.68178 34.8244 2.68178ZM30.8342 8.46537C32.7135 8.25949 34.4131 7.31516 35.5805 5.82257C36.7312 6.76623 38.1909 7.33806 39.6334 7.40716C39.6222 10.095 37.4267 14.7976 34.8244 14.7976C32.8186 14.7976 31.1061 11.9291 30.4662 9.94033C30.6288 9.42882 30.7472 8.93679 30.8342 8.46537ZM30.9852 14.0593L29.6564 14.7951L28.3145 14.0414C28.812 13.4216 29.2682 12.702 29.6589 11.9213C30.0344 12.7109 30.4845 13.4364 30.9852 14.0593ZM28.98 9.69704C28.2627 11.8369 26.4227 14.932 24.1809 14.932C21.5676 14.932 19.342 10.6358 18.918 7.88833C19.0311 7.86029 22.5623 8.07785 24.9923 4.88701C26.2258 5.91881 27.8898 6.6017 29.5083 6.66946C29.5275 7.6393 29.2922 8.77881 28.98 9.69704ZM24.2245 1.48761C28.394 1.48761 29.1877 5.07631 29.253 5.15076C27.7411 4.99724 26.3616 4.25656 25.4085 3.2374C25.2486 3.06603 25.0162 2.98027 24.7845 3.00571C24.5513 3.03115 24.3443 3.16481 24.2245 3.36675C23.3986 4.76406 22.1033 5.7496 20.6035 6.16843C20.0245 6.33021 19.3992 6.404 18.854 6.39871C19.0581 3.66598 21.2483 1.48761 24.2245 1.48761ZM18.6917 11.907C19.0775 12.6791 19.536 13.4166 20.0608 14.0645L18.7477 14.7944L17.3874 14.0298C17.9033 13.3723 18.3412 12.6366 18.6917 11.907ZM13.5091 2.68245C15.1959 2.68245 16.7416 3.53849 17.6029 4.95313C17.5597 5.10308 17.4433 5.69999 17.4279 5.77466C16.3928 5.52698 15.4419 4.9756 14.6967 4.18099C14.5362 4.01029 14.3095 3.92527 14.0727 3.94997C13.8403 3.9754 13.6333 4.10907 13.5142 4.31026C12.5193 5.98925 10.6931 7.03206 8.74843 7.03258C8.98525 4.59231 11.0254 2.68245 13.5091 2.68245ZM8.8138 8.5164C10.9513 8.49557 12.9693 7.48809 14.2776 5.82257C15.1713 6.55834 16.2328 7.04277 17.3608 7.26406C17.4045 8.12635 17.6292 9.17414 17.8862 9.94688C17.4755 11.2064 16.6875 12.7079 15.7101 13.705C15.7039 13.7112 15.6957 13.714 15.6897 13.7204C15.078 14.3647 14.2079 14.7983 13.5236 14.7983C11.1326 14.7983 9.2624 11.0362 8.8138 8.5164ZM4.47735 18.837C4.47735 18.7243 4.52749 18.6285 4.57836 18.5943L10.7522 15.1682C11.1225 15.4766 11.2077 15.5118 11.2823 15.5663L11.282 15.5668C12.0086 16.0497 12.6745 16.2903 13.5832 16.2903C14.5508 16.2903 15.4316 15.8803 16.2068 15.249C16.2505 15.2148 16.2975 15.1818 16.339 15.147L17.2201 15.6424L13.5505 17.6835C13.0021 18.0372 12.6744 18.6379 12.6744 19.2902V23.9615C12.6744 24.1896 12.7791 24.4053 12.9592 24.5462C13.4343 24.9194 14.0503 25.3547 14.5834 25.6881C10.9319 25.9372 7.37923 24.8956 4.47735 22.718V18.837Z" />
<path d="M46.8879 31.1713C45.9727 30.5961 44.8461 30.5365 43.8771 31.0064L34.6979 35.4407C34.6659 33.7227 33.2638 32.3335 31.5375 32.3335L26.2743 32.3349C23.679 30.0788 20.3624 28.6973 17.3465 28.6247C14.3724 28.5542 11.7027 28.5344 10.4576 28.5288V27.0259H0V44.3012H10.4576V42.2324C13.3254 43.8777 20.8661 47.9999 24.4446 47.9999C24.5259 47.9999 24.6051 47.9977 24.6813 47.9933C30.9746 47.6403 45.8172 37.1958 46.7964 36.5022C47.7538 35.9465 48.3472 34.9179 48.3472 33.8088C48.3472 32.7301 47.8017 31.7444 46.8879 31.1713ZM8.96997 42.8135H1.48761V28.5135H8.96997V42.8135ZM46.0308 35.2266C46.0083 35.239 45.9858 35.2528 45.9647 35.268C45.8114 35.377 30.5439 46.1745 24.5985 46.5086C24.5397 46.5115 24.4801 46.513 24.4176 46.513C21.2789 46.513 13.6263 42.3842 10.4576 40.5116V30.0165C11.698 30.0221 14.3524 30.0419 17.3108 30.1123C20.0659 30.1783 23.1247 31.4938 25.4941 33.6308L25.7063 33.8225L31.5375 33.8211C32.4629 33.8211 33.2162 34.5736 33.2162 35.499C33.2162 36.4244 32.4637 37.1777 31.5383 37.1777H20.8251V38.6653H31.5383C32.565 38.6653 33.4699 38.1662 34.0486 37.4061L44.5244 32.3459C45.0386 32.0953 45.6124 32.1272 46.0976 32.4315C46.5822 32.7352 46.8596 33.2371 46.8596 33.8088C46.8596 34.3957 46.5421 34.9382 46.0308 35.2266Z"/>
<path d="M24.9173 18.2378H23.4297V19.6172H24.9173V18.2378Z" />
<path d="M24.9173 20.9885H23.4297V22.3679H24.9173V20.9885Z" />
<path d="M24.9173 23.7393H23.4297V25.1186H24.9173V23.7393Z" />
</symbol>
<symbol id="person" viewBox="0 0 40 47">
<path d="M-0.153959 46.6381C5.00747 46.6381 34.8677 46.6381 40.0231 46.6381C40.222 42.0563 39.8939 34.4544 37.0768 30.8363L36.975 30.7063L30.8192 27.6156C30.9529 27.1647 31.0187 26.7517 31.0451 26.4481C31.0755 26.0838 31.0253 25.7414 30.8952 25.4314C29.8796 23.0013 27.7307 21.7228 26.5486 21.1777C26.9089 20.452 27.1411 19.6729 27.2533 18.8768C27.9224 18.6883 28.4606 18.158 28.6371 17.4506L29.3556 14.5316C29.4829 14.0166 29.403 13.4826 29.1293 13.0284C29.0115 12.8326 28.8592 12.6677 28.6884 12.5268C30.7142 7.92517 27.3213 3.5863 27.1364 3.35791C23.4617 -0.615096 18.8196 0.127805 18.5742 0.171834C11.8751 1.57462 9.28981 6.70877 10.7494 12.7302C10.317 13.2092 10.1355 13.8765 10.2957 14.5309L11.0178 17.4531C11.1928 18.1553 11.7268 18.6837 12.3911 18.8744C12.5961 20.3323 13.2132 21.6509 14.1196 22.7136V25.0277C4.50617 29.9507 10.5975 26.8099 2.89339 30.7074C2.87816 30.7801 -0.721533 34.6058 -0.186489 45.9453L-0.153959 46.6381ZM38.627 45.1836H32.0147V42.4059L36.388 32.3941C38.579 36.0305 38.6603 42.9737 38.627 45.1836ZM29.6024 26.3245C29.3472 29.2558 27.7397 28.3698 26.7474 30.6282C25.9669 29.7699 25.7322 28.7408 25.9419 27.6392C26.3209 25.6164 25.0863 25.0157 25.3914 22.8903L25.4377 22.8416V22.8348C25.4639 22.8055 25.7074 22.5156 25.7778 22.424C28.394 23.5644 29.6535 25.6854 29.6024 26.3245ZM15.5679 24.0206C16.7824 24.8629 18.2484 25.3608 19.8253 25.3608C21.3103 25.3608 22.7208 24.9287 23.93 24.133C24.0976 25.8038 24.7507 26.1383 24.519 27.3679C24.4755 27.5961 24.452 27.821 24.4381 28.0422L19.9349 33.1175L14.1783 26.6276L15.5679 25.902V24.0206H15.5679ZM13.7575 17.8093V14.9953C13.7575 13.9591 13.7575 9.8481 13.7575 10.0511C14.4583 8.75493 15.4137 7.81495 16.6011 7.25138C19.7813 9.05072 23.4418 11.736 25.8967 14.4386C25.8943 17.8803 25.9064 17.8896 25.8835 18.1724L25.8819 18.1904C25.6904 21.3156 23.1206 23.9062 19.8253 23.9062C16.6217 23.9062 13.9619 21.3909 13.7695 18.1594C13.7596 18.0436 13.7575 17.9275 13.7575 17.8093ZM12.8607 27.3295L19.9349 35.3043L24.6843 29.9515C24.7928 30.2641 24.9451 30.5593 25.1192 30.8446L19.9349 37.3277L12.2041 27.6591L12.8607 27.3295ZM27.345 16.6388V14.392C27.4086 14.319 27.9486 13.6999 27.885 13.7729C27.9148 14.9105 28.0376 13.5678 27.345 16.6388ZM18.8423 1.60117C19.1296 1.61906 22.99 1.01398 26.0409 4.30785C26.161 4.4586 28.6446 7.65848 27.6469 11.159C27.3054 9.60135 26.7101 7.60526 25.7694 6.65266L24.7411 7.67681C25.6699 8.61759 26.28 11.4825 26.5124 12.9677C22.2518 8.5094 16.7557 5.68763 16.6803 5.63988C16.4047 5.81131 14.0789 6.25349 12.3897 9.53654L12.3091 9.6935V12.1047C12.2366 12.1055 12.0237 12.1078 12.0962 12.107C11.023 6.92547 13.0782 2.80932 18.8423 1.60117ZM11.9436 13.6033L12.3091 15.0841V16.6406L11.7016 14.1818C11.6125 13.8153 11.884 13.6763 11.9436 13.6033ZM10.8787 28.3245L19.9349 39.6509L26.0622 31.9874C26.7287 32.5839 27.0492 32.6685 28.4624 33.3952L27.9857 31.7784C27.8648 31.3679 28.3436 30.7095 28.6328 30.4069C29.2784 30.0567 29.8166 29.5573 30.2191 28.9407L35.2183 31.451L30.5663 42.1012V45.1836H9.30278V42.1008L4.64867 31.452L10.8787 28.3245ZM3.48036 32.3973L7.85443 42.4062V45.1836H1.24206C1.20883 42.9744 1.29086 36.0348 3.48036 32.3973Z" />
</symbol>
<symbol id="audio-book" viewBox="0 0 55 48">
<path d="M3.57164 44.1788H21.9165C22.8462 46.1068 24.7915 47.3524 26.9868 47.3524H28.1453C30.3428 47.3524 32.287 46.1074 33.2167 44.1788H51.5716C53.4623 44.1788 55.0002 42.6409 55.0002 40.7503V7.89311C55.0002 6.00249 53.4623 4.46454 51.5716 4.46454H49.7201V2.9333C49.7201 1.67269 48.6944 0.647583 47.4344 0.647583H7.69775C6.43771 0.647583 5.41204 1.67269 5.41204 2.9333V4.46454H3.57164C1.68101 4.46454 0.143066 6.00249 0.143066 7.89311V40.7503C0.143066 42.6409 1.68101 44.1788 3.57164 44.1788ZM47.4321 37.1275H28.7145V10.5698C33.0409 11.1357 36.3953 14.8373 36.3953 19.3156V20.3463L36.1241 20.2865C35.8295 20.2235 35.5203 20.2765 35.2636 20.4394C35.008 20.603 34.8272 20.8608 34.7625 21.1571L32.9433 29.4361C32.8082 30.0516 33.1978 30.6604 33.8138 30.796L37.7457 31.6627C37.9489 31.7056 38.1553 31.7279 38.3618 31.7279C39.7446 31.7279 40.9221 30.7821 41.2234 29.4255L42.2759 24.6375C42.623 23.0656 41.6263 21.5019 40.0493 21.1515L38.681 20.85V19.3156C38.681 13.5745 34.3052 8.83692 28.7145 8.26019V2.9333H47.4344L47.4321 37.1275ZM36.7491 22.7648L39.556 23.3831C39.9065 23.4612 40.1207 23.7949 40.0437 24.1454L38.9913 28.9322C38.9154 29.2782 38.5326 29.493 38.2301 29.4288L35.4198 28.8094L36.7491 22.7648ZM7.69775 2.9333H26.4288V8.2585C20.8325 8.82993 16.4511 13.5706 16.4511 19.3156V20.8493L15.0806 21.1521C14.3172 21.3217 13.6654 21.7765 13.2469 22.4327C12.8261 23.0907 12.6877 23.8742 12.8574 24.6353L13.9076 29.4177C14.1922 30.7564 15.3964 31.7279 16.7714 31.7279C16.9779 31.7279 17.1844 31.7056 17.3953 31.661L21.3105 30.796C21.9254 30.6599 22.315 30.0516 22.1799 29.4361L20.3607 21.1571C20.296 20.8608 20.1152 20.6024 19.8596 20.4394C19.6029 20.2765 19.2926 20.2229 18.998 20.2865L18.7368 20.3442V19.3156C18.7368 14.8335 22.0969 11.129 26.4288 10.5681V37.1275H7.69775V5.6074V2.9333ZM18.3741 22.7659L19.7045 28.81L16.9098 29.4272C16.5661 29.5047 16.2156 29.2776 16.1419 28.9355L15.0895 24.142C15.0515 23.9757 15.0817 23.8055 15.1721 23.6638C15.2636 23.5203 15.4076 23.421 15.5739 23.3836L18.3741 22.7659ZM2.42878 7.89311C2.42878 7.26309 2.94106 6.75026 3.57164 6.75026H5.41204V37.1275C5.41204 38.3881 6.43771 39.4132 7.69775 39.4132H47.4344C48.6944 39.4132 49.7201 38.3881 49.7201 37.1275V6.75026H51.5716C52.2022 6.75026 52.7145 7.26309 52.7145 7.89311V40.7503C52.7145 41.3803 52.2022 41.8931 51.5716 41.8931H32.4399C31.9377 41.8931 31.4946 42.2207 31.3473 42.7006C30.9132 44.1158 29.6263 45.0667 28.1453 45.0667H26.9868C25.5114 45.0667 24.2257 44.1197 23.7804 42.6872C23.6285 42.214 23.1888 41.8931 22.6922 41.8931H3.57164C2.94106 41.8931 2.42878 41.3803 2.42878 40.7503V7.89311Z" />
</symbol>
<symbol id="strip" viewBox="0 0 20 3">
<path d="M0 0.4H20V2.34H0V0.4Z" >
</symbol>
</defs>
</svg>
